<svg width="1178" height="538" viewBox="0 0 1178 538" fill="none" xmlns="http://www.w3.org/2000/svg">
<g clip-path="url(#clip0_101_580)">
<path d="M1010.27 53.8335C1024.31 59.685 1037.58 66.7067 1050.45 74.8988C1136.65 128.732 1191.26 233.669 1175.27 333.925C1158.89 435.74 1051.23 580.467 944.74 601.532C910.024 608.554 874.528 598.802 840.593 588.269C783.643 570.715 730.204 542.237 674.034 525.853C652.191 519.612 628.397 518.051 607.333 526.633C570.667 541.457 561.695 573.445 546.093 605.824C528.54 642.493 498.895 673.311 463.008 692.426C389.286 731.435 294.11 713.101 225.848 670.97C124.431 608.554 88.1549 485.673 121.701 374.105C130.282 345.237 143.934 316.76 166.558 296.475C205.175 261.366 263.295 255.125 314.003 267.998C349.109 276.97 381.095 294.134 411.52 312.859C436.484 328.463 459.498 349.919 490.313 349.919C552.724 350.309 571.837 269.948 591.73 225.087C617.865 165.792 661.942 113.909 716.552 79.1899C804.707 22.6256 914.315 12.8731 1010.27 53.8335Z" fill="url(#paint0_linear_101_580)"/>
<path d="M1010.3 54.0706C1024.34 59.9209 1037.6 66.9412 1050.46 75.1316C1136.63 128.954 1191.21 233.87 1175.22 334.105C1158.85 435.9 1051.24 580.597 944.803 601.658C910.104 608.678 874.624 598.928 840.704 588.397C783.781 570.847 730.367 542.375 674.224 525.994C652.39 519.754 628.607 518.194 607.553 526.774C570.904 541.595 561.937 573.577 546.342 605.948C528.797 642.61 499.166 673.422 463.296 692.533C389.608 731.535 294.476 713.204 226.247 671.082C124.877 608.678 88.6177 485.822 122.148 374.277C130.725 345.415 144.371 316.944 166.984 296.663C205.583 261.561 263.676 255.321 314.361 268.191C349.45 277.162 381.421 294.323 411.832 313.044C436.784 328.644 459.787 350.095 490.588 350.095C552.97 350.485 572.074 270.141 591.958 225.289C618.08 166.006 662.137 114.134 716.721 79.4218C804.835 22.869 914.392 13.1185 1010.3 54.0706Z" fill="url(#paint1_radial_101_580)"/>
<path d="M91.6655 855.097C-84.6445 722.073 18.333 429.109 188.012 339.386C251.593 305.837 325.705 292.964 397.087 302.326C461.448 310.909 541.802 332.754 607.723 307.788C657.652 288.673 680.666 241.471 706.8 198.56C779.352 79.1899 962.293 56.9542 1053.18 170.083C1086.72 211.824 1100.38 269.948 1083.99 321.051C1045.38 439.641 915.875 388.928 842.543 452.515C813.288 477.871 805.487 528.584 788.324 562.523C770.771 597.241 749.317 630.4 726.303 661.998C677.935 728.705 619.035 789.56 551.164 836.762C415.811 931.166 246.522 959.253 103.367 863.679C99.4668 860.948 95.5661 858.218 91.6655 855.097Z" fill="url(#paint2_linear_101_580)"/>
<path d="M91.6655 855.097C-84.6445 722.073 18.333 429.109 188.012 339.386C251.593 305.837 325.705 292.964 397.087 302.326C461.448 310.909 541.802 332.754 607.723 307.788C657.652 288.673 680.666 241.471 706.8 198.56C779.352 79.1899 962.293 56.9542 1053.18 170.083C1086.72 211.824 1100.38 269.948 1083.99 321.051C1045.38 439.641 915.875 388.928 842.543 452.515C813.288 477.871 805.487 528.584 788.324 562.523C770.771 597.241 749.317 630.4 726.303 661.998C677.935 728.705 619.035 789.56 551.164 836.762C415.811 931.166 246.522 959.253 103.367 863.679C99.4668 860.948 95.5661 858.218 91.6655 855.097Z" fill="url(#paint3_radial_101_580)"/>
<path d="M522.5 209C505.103 209 491 194.897 491 177.5C491 160.103 505.103 146 522.5 146C539.897 146 554 160.103 554 177.5C554 194.897 539.897 209 522.5 209Z" fill="url(#paint4_linear_101_580)"/>
</g>
<defs>
<linearGradient id="paint0_linear_101_580" x1="49.8479" y1="727.246" x2="1527.73" y2="-79.8282" gradientUnits="userSpaceOnUse">
<stop stop-color="#FF9370"/>
<stop offset="1" stop-color="#FFDF00"/>
</linearGradient>
<radialGradient id="paint1_radial_101_580" cx="0" cy="0" r="1" gradientUnits="userSpaceOnUse" gradientTransform="translate(648.764 -77.0703) rotate(79.7207) scale(1206.28 1124.64)">
<stop stop-color="#FEBB40"/>
<stop offset="0.5576" stop-color="#EC4C76"/>
<stop offset="0.9726" stop-color="#D60B52"/>
</radialGradient>
<linearGradient id="paint2_linear_101_580" x1="1070.01" y1="-400.149" x2="121.837" y2="1116.36" gradientUnits="userSpaceOnUse">
<stop stop-color="#FFDF00"/>
<stop offset="1" stop-color="#FF9370"/>
</linearGradient>
<radialGradient id="paint3_radial_101_580" cx="0" cy="0" r="1" gradientUnits="userSpaceOnUse" gradientTransform="translate(793.435 162.015) rotate(-122.48) scale(1284.19 2158.72)">
<stop stop-color="#FEBB40"/>
<stop offset="0.5576" stop-color="#EC4C76"/>
<stop offset="0.9726" stop-color="#D60B52"/>
</radialGradient>
<linearGradient id="paint4_linear_101_580" x1="448.913" y1="229.344" x2="599.113" y2="123.255" gradientUnits="userSpaceOnUse">
<stop stop-color="#EC4C76"/>
<stop offset="0.5183" stop-color="#FEBB40"/>
<stop offset="1" stop-color="white"/>
</linearGradient>
<clipPath id="clip0_101_580">
<rect width="1178" height="538" fill="white" transform="matrix(-1 0 0 1 1178 0)"/>
</clipPath>
</defs>
</svg>
