<svg width="511" height="384" viewBox="0 0 511 384" fill="none" xmlns="http://www.w3.org/2000/svg">
<g clip-path="url(#clip0_101_590)">
<path d="M326.799 18.2984C342.231 24.6686 356.805 32.3128 370.951 41.2311C465.683 99.8367 525.695 214.075 508.12 323.218C490.116 434.059 371.808 591.614 254.786 614.547C216.635 622.191 177.628 611.574 140.335 600.108C77.7517 580.997 19.0262 549.996 -42.6999 532.159C-66.7045 525.364 -92.8524 523.666 -116 533.009C-156.293 549.146 -166.152 583.97 -183.298 619.218C-202.588 659.138 -235.165 692.688 -274.601 713.497C-355.617 755.965 -460.208 736.005 -535.223 690.14C-646.673 622.191 -686.537 488.417 -649.673 366.959C-640.243 335.533 -625.24 304.532 -600.378 282.448C-557.941 244.227 -494.072 237.432 -438.347 251.447C-399.768 261.214 -364.619 279.9 -331.184 300.285C-303.75 317.272 -278.459 340.629 -244.596 340.629C-176.011 341.054 -155.007 253.57 -133.146 204.732C-104.426 140.181 -55.9881 83.6989 4.02334 45.9025C100.899 -15.6758 221.351 -26.2928 326.799 18.2984Z" fill="url(#paint0_linear_101_590)"/>
<path d="M326.836 18.5566C342.26 24.9254 356.827 32.5681 370.966 41.4845C465.654 100.078 525.638 214.293 508.071 323.414C490.076 434.232 371.823 591.756 254.855 614.684C216.723 622.326 177.734 611.712 140.458 600.248C77.9042 581.141 19.2061 550.146 -42.4912 532.313C-66.4845 525.519 -92.6202 523.821 -115.757 533.162C-156.031 549.297 -165.886 584.113 -183.024 619.354C-202.304 659.266 -234.867 692.809 -274.284 713.614C-355.262 756.073 -459.805 736.117 -534.784 690.261C-646.182 622.326 -686.028 488.58 -649.181 367.147C-639.755 335.727 -624.759 304.732 -599.909 282.653C-557.492 244.439 -493.653 237.646 -437.954 251.658C-399.393 261.423 -364.26 280.105 -330.84 300.486C-303.419 317.469 -278.141 340.822 -244.293 340.822C-175.74 341.246 -154.746 253.781 -132.895 204.952C-104.188 140.414 -55.7732 83.9437 4.21026 46.155C101.041 -15.4108 221.436 -26.0256 326.836 18.5566Z" fill="url(#paint1_radial_101_590)"/>
<path d="M-682.68 890.588C-876.431 745.773 -763.267 426.839 -576.802 329.163C-506.932 292.641 -425.488 278.626 -347.044 288.819C-276.316 298.161 -188.014 321.943 -115.571 294.764C-60.7037 273.955 -35.4132 222.569 -6.69338 175.854C73.0362 45.9025 274.075 21.6958 373.951 144.853C410.815 190.293 425.818 253.57 407.814 309.203C365.378 438.305 223.065 383.097 142.478 452.32C110.329 479.924 101.756 535.132 82.8952 572.079C63.6058 609.875 40.0298 645.973 14.7393 680.372C-38.4137 752.992 -103.14 819.242 -177.726 870.628C-326.469 973.4 -512.504 1003.98 -669.82 899.931C-674.107 896.958 -678.393 893.985 -682.68 890.588Z" fill="url(#paint2_linear_101_590)"/>
<path d="M-682.68 890.588C-876.431 745.773 -763.267 426.839 -576.802 329.163C-506.932 292.641 -425.488 278.626 -347.044 288.819C-276.316 298.161 -188.014 321.943 -115.571 294.764C-60.7037 273.955 -35.4132 222.569 -6.69338 175.854C73.0362 45.9025 274.075 21.6958 373.951 144.853C410.815 190.293 425.818 253.57 407.814 309.203C365.378 438.305 223.065 383.097 142.478 452.32C110.329 479.924 101.756 535.132 82.8952 572.079C63.6058 609.875 40.0298 645.973 14.7393 680.372C-38.4137 752.992 -103.14 819.242 -177.726 870.628C-326.469 973.4 -512.504 1003.98 -669.82 899.931C-674.107 896.958 -678.393 893.985 -682.68 890.588Z" fill="url(#paint3_radial_101_590)"/>
</g>
<defs>
<linearGradient id="paint0_linear_101_590" x1="-728.634" y1="751.404" x2="888.396" y2="-140" gradientUnits="userSpaceOnUse">
<stop stop-color="#FF9370"/>
<stop offset="1" stop-color="#FFDF00"/>
</linearGradient>
<radialGradient id="paint1_radial_101_590" cx="0" cy="0" r="1" gradientUnits="userSpaceOnUse" gradientTransform="translate(-70.4694 -124.209) rotate(79.6257) scale(1313.6 1235.52)">
<stop stop-color="#FEBB40"/>
<stop offset="0.5576" stop-color="#EC4C76"/>
<stop offset="0.9726" stop-color="#D60B52"/>
</radialGradient>
<linearGradient id="paint2_linear_101_590" x1="392.451" y1="-475.926" x2="-635.497" y2="1183.7" gradientUnits="userSpaceOnUse">
<stop stop-color="#FFDF00"/>
<stop offset="1" stop-color="#FF9370"/>
</linearGradient>
<radialGradient id="paint3_radial_101_590" cx="0" cy="0" r="1" gradientUnits="userSpaceOnUse" gradientTransform="translate(88.5121 136.069) rotate(-122.724) scale(1401.84 2365.81)">
<stop stop-color="#FEBB40"/>
<stop offset="0.5576" stop-color="#EC4C76"/>
<stop offset="0.9726" stop-color="#D60B52"/>
</radialGradient>
<clipPath id="clip0_101_590">
<rect width="511" height="393" fill="white" transform="translate(0 -9)"/>
</clipPath>
</defs>
</svg>
