<svg width="1409" height="538" viewBox="0 0 1409 538" fill="none" xmlns="http://www.w3.org/2000/svg">
<g clip-path="url(#clip0_109_732)">
<path d="M1224.8 44.2984C1240.23 50.6686 1254.81 58.3128 1268.95 67.2311C1363.68 125.837 1423.69 240.075 1406.12 349.218C1388.12 460.059 1269.81 617.614 1152.79 640.547C1114.64 648.191 1075.63 637.574 1038.34 626.108C975.752 606.997 917.026 575.996 855.3 558.159C831.296 551.365 805.148 549.666 782 559.009C741.707 575.146 731.848 609.97 714.702 645.218C695.412 685.138 662.835 718.688 623.399 739.497C542.383 781.965 437.792 762.005 362.777 716.14C251.328 648.191 211.463 514.417 248.327 392.959C257.757 361.533 272.76 330.532 297.622 308.448C340.059 270.227 403.928 263.432 459.653 277.447C498.232 287.214 533.381 305.9 566.816 326.285C594.25 343.272 619.541 366.629 653.404 366.629C721.989 367.054 742.993 279.57 764.854 230.732C793.574 166.181 842.012 109.699 902.023 71.9025C998.899 10.3242 1119.35 -0.292799 1224.8 44.2984Z" fill="url(#paint0_linear_109_732)"/>
<path d="M1224.84 44.5566C1240.26 50.9254 1254.83 58.5681 1268.97 67.4845C1363.65 126.078 1423.64 240.293 1406.07 349.414C1388.08 460.232 1269.82 617.756 1152.86 640.684C1114.72 648.326 1075.73 637.712 1038.46 626.248C975.904 607.141 917.206 576.146 855.509 558.313C831.515 551.519 805.38 549.821 782.243 559.162C741.969 575.297 732.114 610.113 714.976 645.354C695.696 685.266 663.133 718.809 623.716 739.614C542.738 782.073 438.195 762.117 363.216 716.261C251.818 648.326 211.972 514.58 248.819 393.147C258.245 361.727 273.241 330.732 298.091 308.653C340.508 270.439 404.347 263.646 460.046 277.658C498.607 287.423 533.74 306.105 567.16 326.486C594.581 343.469 619.859 366.822 653.707 366.822C722.26 367.246 743.254 279.781 765.105 230.952C793.812 166.414 842.227 109.944 902.21 72.155C999.041 10.5892 1119.44 -0.0256062 1224.84 44.5566Z" fill="url(#paint1_radial_109_732)"/>
<path d="M215.32 916.588C21.5687 771.773 134.733 452.839 321.198 355.163C391.068 318.641 472.512 304.626 550.956 314.819C621.684 324.161 709.986 347.943 782.429 320.764C837.296 299.955 862.587 248.569 891.307 201.854C971.036 71.9025 1172.07 47.6958 1271.95 170.853C1308.82 216.293 1323.82 279.57 1305.81 335.203C1263.38 464.305 1121.06 409.097 1040.48 478.32C1008.33 505.924 999.756 561.132 980.895 598.079C961.606 635.875 938.03 671.973 912.739 706.372C859.586 778.992 794.86 845.242 720.274 896.628C571.531 999.4 385.496 1029.98 228.18 925.931C223.893 922.958 219.607 919.985 215.32 916.588Z" fill="url(#paint2_linear_109_732)"/>
<path d="M215.32 916.588C21.5687 771.773 134.733 452.839 321.198 355.163C391.068 318.641 472.512 304.626 550.956 314.819C621.684 324.161 709.986 347.943 782.429 320.764C837.296 299.955 862.587 248.569 891.307 201.854C971.036 71.9025 1172.07 47.6958 1271.95 170.853C1308.82 216.293 1323.82 279.57 1305.81 335.203C1263.38 464.305 1121.06 409.097 1040.48 478.32C1008.33 505.924 999.756 561.132 980.895 598.079C961.606 635.875 938.03 671.973 912.739 706.372C859.586 778.992 794.86 845.242 720.274 896.628C571.531 999.4 385.496 1029.98 228.18 925.931C223.893 922.958 219.607 919.985 215.32 916.588Z" fill="url(#paint3_radial_109_732)"/>
</g>
<g clip-path="url(#clip1_109_732)">
<path d="M1010.27 53.8335C1024.31 59.685 1037.58 66.7067 1050.45 74.8988C1136.65 128.732 1191.26 233.669 1175.27 333.925C1158.89 435.74 1051.23 580.467 944.74 601.532C910.024 608.554 874.528 598.802 840.593 588.269C783.643 570.715 730.204 542.237 674.034 525.853C652.191 519.612 628.397 518.051 607.333 526.633C570.667 541.457 561.695 573.445 546.093 605.824C528.54 642.493 498.895 673.311 463.008 692.426C389.286 731.435 294.11 713.101 225.848 670.97C124.431 608.554 88.1549 485.673 121.701 374.105C130.282 345.237 143.934 316.76 166.558 296.475C205.175 261.366 263.295 255.125 314.003 267.998C349.109 276.97 381.095 294.134 411.52 312.859C436.484 328.463 459.498 349.919 490.313 349.919C552.724 350.309 571.837 269.948 591.73 225.087C617.865 165.792 661.942 113.909 716.552 79.1899C804.707 22.6256 914.315 12.8731 1010.27 53.8335Z" fill="url(#paint4_linear_109_732)"/>
<path d="M1010.3 54.0706C1024.34 59.9209 1037.6 66.9412 1050.46 75.1316C1136.63 128.954 1191.21 233.87 1175.22 334.105C1158.85 435.9 1051.24 580.597 944.803 601.658C910.104 608.678 874.624 598.928 840.704 588.397C783.781 570.846 730.367 542.375 674.224 525.994C652.39 519.754 628.607 518.194 607.553 526.774C570.904 541.595 561.937 573.577 546.342 605.948C528.797 642.61 499.166 673.422 463.296 692.533C389.608 731.535 294.476 713.204 226.247 671.082C124.877 608.678 88.6177 485.822 122.148 374.277C130.725 345.415 144.371 316.944 166.984 296.663C205.583 261.561 263.676 255.321 314.361 268.191C349.45 277.162 381.421 294.323 411.832 313.044C436.784 328.644 459.787 350.095 490.588 350.095C552.97 350.485 572.074 270.141 591.958 225.289C618.08 166.006 662.137 114.134 716.721 79.4218C804.835 22.869 914.392 13.1185 1010.3 54.0706Z" fill="url(#paint5_radial_109_732)"/>
<path d="M91.666 855.097C-84.644 722.073 18.3335 429.109 188.012 339.386C251.593 305.837 325.706 292.964 397.088 302.326C461.449 310.909 541.802 332.754 607.724 307.788C657.652 288.673 680.666 241.471 706.8 198.56C779.353 79.1899 962.294 56.9542 1053.18 170.083C1086.72 211.824 1100.38 269.948 1083.99 321.051C1045.38 439.641 915.876 388.928 842.544 452.515C813.289 477.871 805.487 528.584 788.324 562.523C770.771 597.241 749.318 630.4 726.304 661.998C677.936 728.705 619.036 789.56 551.164 836.762C415.811 931.166 246.522 959.253 103.368 863.679C99.4673 860.948 95.5666 858.218 91.666 855.097Z" fill="url(#paint6_linear_109_732)"/>
<path d="M91.666 855.097C-84.644 722.073 18.3335 429.109 188.012 339.386C251.593 305.837 325.706 292.964 397.088 302.326C461.449 310.909 541.802 332.754 607.724 307.788C657.652 288.673 680.666 241.471 706.8 198.56C779.353 79.1899 962.294 56.9542 1053.18 170.083C1086.72 211.824 1100.38 269.948 1083.99 321.051C1045.38 439.641 915.876 388.928 842.544 452.515C813.289 477.871 805.487 528.584 788.324 562.523C770.771 597.241 749.318 630.4 726.304 661.998C677.936 728.705 619.036 789.56 551.164 836.762C415.811 931.166 246.522 959.253 103.368 863.679C99.4673 860.948 95.5666 858.218 91.666 855.097Z" fill="url(#paint7_radial_109_732)"/>
<path d="M557.5 239C540.103 239 526 224.897 526 207.5C526 190.103 540.103 176 557.5 176C574.897 176 589 190.103 589 207.5C589 224.897 574.897 239 557.5 239Z" fill="url(#paint8_linear_109_732)"/>
<path d="M423.5 146C403.342 146 387 129.658 387 109.5C387 89.3416 403.342 73 423.5 73C443.658 73 460 89.3416 460 109.5C460 129.658 443.658 146 423.5 146Z" fill="url(#paint9_linear_109_732)"/>
</g>
<defs>
<linearGradient id="paint0_linear_109_732" x1="169.366" y1="777.404" x2="1786.4" y2="-114" gradientUnits="userSpaceOnUse">
<stop stop-color="#FF9370"/>
<stop offset="1" stop-color="#FFDF00"/>
</linearGradient>
<radialGradient id="paint1_radial_109_732" cx="0" cy="0" r="1" gradientUnits="userSpaceOnUse" gradientTransform="translate(827.531 -98.209) rotate(79.6257) scale(1313.6 1235.52)">
<stop stop-color="#FEBB40"/>
<stop offset="0.5576" stop-color="#EC4C76"/>
<stop offset="0.9726" stop-color="#D60B52"/>
</radialGradient>
<linearGradient id="paint2_linear_109_732" x1="1290.45" y1="-449.926" x2="262.503" y2="1209.7" gradientUnits="userSpaceOnUse">
<stop stop-color="#FFDF00"/>
<stop offset="1" stop-color="#FF9370"/>
</linearGradient>
<radialGradient id="paint3_radial_109_732" cx="0" cy="0" r="1" gradientUnits="userSpaceOnUse" gradientTransform="translate(986.512 162.069) rotate(-122.724) scale(1401.84 2365.81)">
<stop stop-color="#FEBB40"/>
<stop offset="0.5576" stop-color="#EC4C76"/>
<stop offset="0.9726" stop-color="#D60B52"/>
</radialGradient>
<linearGradient id="paint4_linear_109_732" x1="49.8479" y1="727.246" x2="1527.73" y2="-79.8282" gradientUnits="userSpaceOnUse">
<stop stop-color="#FF9370"/>
<stop offset="1" stop-color="#FFDF00"/>
</linearGradient>
<radialGradient id="paint5_radial_109_732" cx="0" cy="0" r="1" gradientUnits="userSpaceOnUse" gradientTransform="translate(648.764 -77.0703) rotate(79.7207) scale(1206.28 1124.64)">
<stop stop-color="#FEBB40"/>
<stop offset="0.5576" stop-color="#EC4C76"/>
<stop offset="0.9726" stop-color="#D60B52"/>
</radialGradient>
<linearGradient id="paint6_linear_109_732" x1="1070.01" y1="-400.149" x2="121.838" y2="1116.36" gradientUnits="userSpaceOnUse">
<stop stop-color="#FFDF00"/>
<stop offset="1" stop-color="#FF9370"/>
</linearGradient>
<radialGradient id="paint7_radial_109_732" cx="0" cy="0" r="1" gradientUnits="userSpaceOnUse" gradientTransform="translate(793.436 162.015) rotate(-122.48) scale(1284.19 2158.72)">
<stop stop-color="#FEBB40"/>
<stop offset="0.5576" stop-color="#EC4C76"/>
<stop offset="0.9726" stop-color="#D60B52"/>
</radialGradient>
<linearGradient id="paint8_linear_109_732" x1="483.913" y1="259.344" x2="634.113" y2="153.255" gradientUnits="userSpaceOnUse">
<stop stop-color="#EC4C76"/>
<stop offset="0.5183" stop-color="#FEBB40"/>
<stop offset="1" stop-color="white"/>
</linearGradient>
<linearGradient id="paint9_linear_109_732" x1="338.232" y1="169.573" x2="512.273" y2="46.6448" gradientUnits="userSpaceOnUse">
<stop stop-color="#EC4C76"/>
<stop offset="0.703531" stop-color="#FEBB40"/>
<stop offset="1" stop-color="white"/>
</linearGradient>
<clipPath id="clip0_109_732">
<rect width="511" height="393" fill="white" transform="translate(898 17)"/>
</clipPath>
<clipPath id="clip1_109_732">
<rect width="1178" height="538" fill="white" transform="matrix(-1 0 0 1 1178 0)"/>
</clipPath>
</defs>
</svg>
